<?xml version="1.0" standalone="no"?>
<!DOCTYPE svg PUBLIC "-//W3C//DTD SVG 20010904//EN"
 "http://www.w3.org/TR/2001/REC-SVG-20010904/DTD/svg10.dtd">
<svg version="1.0" xmlns="http://www.w3.org/2000/svg"
 width="4469.000000pt" height="1000.000000pt" viewBox="0 0 4469.000000 1000.000000"
 preserveAspectRatio="xMidYMid meet">

<g transform="translate(0.000000,1000.000000) scale(0.100000,-0.100000)"
fill="#000000" stroke="none">
<path d="M7528 9480 c-97 -17 -201 -57 -1678 -636 -1755 -689 -1596 -625
-1687 -675 -198 -109 -300 -232 -356 -427 l-22 -77 -3 -1945 c-2 -1370 0
-1977 8 -2055 23 -224 72 -383 162 -520 58 -89 194 -235 278 -300 30 -23 787
-558 1683 -1188 l1628 -1146 1710 1144 c942 630 1743 1170 1781 1201 210 172
341 376 399 621 49 208 49 169 49 2199 0 2084 3 1991 -59 2150 -67 171 -204
299 -423 392 -203 86 -3106 1224 -3170 1242 -82 24 -229 33 -300 20z m302
-358 c79 -24 2824 -1119 2901 -1157 98 -49 217 -134 269 -193 61 -68 122 -187
152 -297 29 -110 30 -224 20 -2125 -9 -1546 -10 -1587 -30 -1678 -62 -279
-175 -469 -388 -654 -38 -33 -777 -523 -1642 -1089 l-1572 -1030 -1438 992
c-790 546 -1478 1023 -1527 1060 -161 120 -300 284 -377 447 -46 97 -91 265
-108 402 -8 69 -10 573 -8 1860 3 1666 4 1768 21 1825 31 101 83 197 142 262
57 64 193 162 295 213 114 58 2887 1159 2955 1174 90 20 246 14 335 -12z"/>
<path d="M7507 8794 c-57 -12 -2527 -974 -2692 -1047 -231 -103 -341 -217
-392 -407 -17 -61 -18 -172 -18 -1790 0 -1624 1 -1730 18 -1814 42 -204 113
-335 261 -481 81 -80 186 -155 946 -670 470 -319 1095 -742 1389 -942 l534
-362 36 23 c229 145 2792 1799 2836 1831 178 128 319 316 373 500 58 196 55
96 59 1860 3 1044 0 1656 -6 1721 -18 181 -83 316 -195 406 -66 52 -181 116
-278 152 -35 13 -616 242 -1293 509 -676 267 -1255 492 -1285 501 -79 24 -211
29 -293 10z m-547 -2128 c206 -41 338 -104 451 -216 87 -87 143 -188 180 -326
31 -112 31 -344 1 -456 -56 -206 -167 -342 -359 -438 -77 -38 -208 -81 -290
-95 -24 -4 -43 -8 -43 -10 0 -7 577 -825 622 -882 72 -91 124 -132 191 -150
52 -15 57 -19 57 -45 l0 -28 -486 0 -485 0 3 32 c2 27 8 33 35 40 18 5 40 20
49 34 16 24 16 27 -13 82 -16 32 -159 247 -319 480 l-289 422 -352 0 -353 0 0
-460 c0 -364 3 -467 13 -493 13 -30 50 -56 100 -71 11 -4 17 -16 17 -36 l0
-30 -420 0 -420 0 0 30 c0 25 6 32 44 49 82 36 76 -66 76 1256 0 1322 6 1220
-76 1256 -38 17 -44 24 -44 50 l0 30 1013 -4 c899 -3 1021 -6 1097 -21z m1328
-7 c-2 -26 -9 -33 -41 -44 -81 -28 -104 -79 -76 -166 27 -80 733 -1639 740
-1632 17 19 721 1599 734 1649 22 86 3 121 -87 154 -22 7 -28 16 -28 40 l0 30
460 0 460 0 0 -29 c0 -26 -5 -30 -57 -47 -50 -16 -62 -26 -90 -68 -31 -48
-990 -2115 -1044 -2251 -51 -128 -35 -174 74 -209 11 -3 17 -16 17 -36 l0 -30
-461 0 -460 0 3 32 c2 26 8 33 35 40 40 10 83 61 83 97 0 16 -5 43 -12 62 -16
50 -961 2095 -1024 2221 -58 112 -75 129 -142 148 -37 10 -42 14 -42 40 l0 30
481 0 480 0 -3 -31z"/>
<path d="M5560 5900 l0 -350 493 0 c724 1 789 9 894 115 62 64 83 123 83 235
0 112 -21 171 -83 235 -105 106 -171 115 -889 115 l-498 0 0 -350z"/>
</g>
</svg>
